<svg id="Capa_1" data-name="Capa 1" xmlns="http://www.w3.org/2000/svg" viewBox="0 0 120 120"><path d="M13.49,94.94c.38,0,.64,0,.91,0,14.82,0,29.65.32,44.46-.09C77.52,94.38,91,85.33,99.2,68.56c.15-.3.27-.62.43-.92a1.12,1.12,0,0,1,1.59-.64,1.09,1.09,0,0,1,.54,1.62,66.49,66.49,0,0,1-3.36,6.43c-8.27,12.87-20,20.26-35.24,22a45.71,45.71,0,0,1-5.1.25q-22.41,0-44.81,0c-2,0-2.15-.13-2.15-2.12,0-15.35-.24-30.72.09-46.07.35-16.51,7.77-29.43,21.46-38.6C41.79,4.42,52,2.17,62.94,3.09a46.9,46.9,0,0,1,41.64,37.54c.48,2.56.64,5.18.94,7.78.1.85-.14,1.59-1.11,1.65s-1.24-.69-1.27-1.53a42.71,42.71,0,0,0-3.47-15.89C92.91,17.44,81.31,8.28,64.87,5.8A44.41,44.41,0,0,0,19.16,28.29a43.82,43.82,0,0,0-5.7,21.86c0,14.63,0,29.27,0,43.91C13.45,94.32,13.47,94.58,13.49,94.94Z"/><path d="M106.63,114.52v-1.24q0-12,0-24a26.21,26.21,0,0,0-4.09-14.43c-.48-.75-.77-1.51.14-2.06s1.4,0,1.85.74a26.78,26.78,0,0,1,4.4,14.14c.1,9.25,0,18.5,0,27.75,0,1.22-.4,1.61-1.65,1.61-9.1,0-18.2.22-27.29-.07-10.71-.34-18.77-5.42-24.12-14.75-.15-.26-.42-.57-.38-.8a2.48,2.48,0,0,1,.61-1.49c.27-.18,1,.19,1.43.43.22.12.31.51.46.77C63,109.63,70.3,114.3,80.14,114.55c8.56.22,17.13.06,25.69.06C106.05,114.61,106.27,114.56,106.63,114.52Z"/><path d="M68.64,54.62c-3.54-1-5.82-3.17-6.66-6.65a8.68,8.68,0,0,1,7.07-10.51,8.59,8.59,0,0,1,10,7.84,32.79,32.79,0,0,1-.46,8.35c-1.12,5.19-6.08,9-11.36,9.23-1.72.07-2.23-.68-1.5-2.23C66.69,58.67,67.65,56.69,68.64,54.62Zm0,5.61a9.68,9.68,0,0,0,1-.2c3.45-1.15,6-3.44,6.68-7a27.82,27.82,0,0,0,.23-8.45c-.37-3.21-3.87-5.36-7-4.81a6.28,6.28,0,0,0-5.36,6.47,6.37,6.37,0,0,0,5.92,6.11c1.57.18,1.91.77,1.25,2.18C70.44,56.4,69.56,58.23,68.6,60.23Z"/><path d="M44.37,54.62c-3.66-1.08-6-3.31-6.73-7a8.7,8.7,0,0,1,7.23-10.21c5.1-.68,9.79,3,9.92,8a34.56,34.56,0,0,1-.52,8.46c-1.18,5.1-6.09,8.78-11.3,9-1.72.07-2.23-.67-1.49-2.23C42.42,58.67,43.37,56.7,44.37,54.62Zm0,5.55a9.67,9.67,0,0,0,7.91-8,32.18,32.18,0,0,0,.18-6.8,6.23,6.23,0,0,0-7.18-5.63,6.32,6.32,0,0,0-5.41,6.33,6.4,6.4,0,0,0,5.9,6.25c1.62.2,2,.79,1.25,2.27C46.14,56.45,45.27,58.26,44.35,60.17Z"/><path d="M105.39,54.45c-.17,1.11-.32,2.23-.5,3.35-.13.76-.68,1.22-1.36,1a1.76,1.76,0,0,1-.91-1.29,18.35,18.35,0,0,1,.48-3.91,1.61,1.61,0,0,1,1.23-1c.38,0,.74.73,1,1.18.1.15,0,.44,0,.67Z"/></svg>